#!OML:ASF I:\Random Stuff\random\construction\7_22_03\Session 2\subj1.ASF
:FULLY-SPECIFIED
:DEGREES
2796
root 5.71779 17.7079 -13.609 12.5691 -30.0355 -0.668233
lowerback 5.31619 -4.28801 2.48374
upperback 0.517152 -5.49767 3.09551
thorax -2.36583 -2.75702 2.19986
lowerneck -16.8411 -10.3517 -10.6856
upperneck 36.1892 -18.6455 13.3466
head 19.2831 -7.53791 3.90779
rclavicle -1.06747e-013 -3.97569e-016
rhumerus -38.0381 29.7677 -78.3845
rradius 96.8456
rwrist 15.3761
rhand -16.7356 5.82631
rfingers 7.12502
rthumb 9.49042 -23.94
lclavicle -1.06747e-013 -3.97569e-016
lhumerus 6.97536 -46.7943 87.0279
lradius 57.5903
lwrist 347.906
lhand -28.5583 61.7258
lfingers 7.12502
lthumb -181.925 2608.3
rfemur -16.475 12.2424 19.3089
rtibia 15.7901
rfoot -10.1281 -2.74137
rtoes -24.123
lfemur -13.9606 -5.62882 -15.1665
ltibia 18.2859
lfoot -14.9838 18.4054
ltoes -24.5476
2797
root 5.7244 17.7082 -13.6085 12.5515 -30.1419 -0.614593
lowerback 5.32282 -4.26673 2.45879
upperback 0.513377 -5.47053 3.0878
thorax -2.37232 -2.74328 2.20442
lowerneck -16.7729 -10.3755 -10.8475
upperneck 36.0086 -18.6129 13.4216
head 19.1845 -7.54479 3.9731
rclavicle 5.70512e-014 -3.26007e-014
rhumerus -37.9571 29.8366 -78.3597
rradius 96.8555
rwrist 15.3485
rhand -16.7867 5.65848
rfingers 7.12502
rthumb 9.44114 -24.1101
lclavicle 5.70512e-014 -3.26007e-014
lhumerus 6.98709 -46.6667 87.1178
lradius 57.5424
lwrist 348.156
lhand -28.5836 61.6186
lfingers 7.12502
lthumb -181.95 2608.41
rfemur -16.5497 12.1424 19.237
rtibia 15.8468
rfoot -10.1794 -2.53922
rtoes -23.7784
lfemur -13.902 -5.8859 -15.2294
ltibia 18.1881
lfoot -15.0632 18.6989
ltoes -24.1248
2798
root 5.73303 17.7087 -13.6068 12.5254 -30.2243 -0.583893
lowerback 5.34706 -4.27246 2.48843
upperback 0.496778 -5.47445 3.09673
thorax -2.40481 -2.74548 2.20064
lowerneck -16.8276 -10.3494 -10.9783
upperneck 35.9029 -18.4988 13.4504
head 19.1346 -7.51218 4.03042
rclavicle -2.84262e-014 -1.15295e-014
rhumerus -37.8809 29.979 -78.3278
rradius 96.8489
rwrist 15.3653
rhand -16.7225 5.62267
rfingers 7.12502
rthumb 9.50313 -24.143
lclavicle -2.84262e-014 -1.15295e-014
lhumerus 6.90501 -46.5193 87.2697
lradius 57.5011
lwrist 348.543
lhand -28.8665 61.4448
lfingers 7.12502
lthumb -182.223 2608.59
rfemur -16.6033 12.0658 19.1855
rtibia 15.9131
rfoot -10.2189 -2.4292
rtoes -23.6633
lfemur -13.8294 -6.02701 -15.2863
ltibia 18.0802
lfoot -15.1145 18.8881
ltoes -23.7913
2799
root 5.73976 17.7094 -13.6048 12.4988 -30.3252 -0.556916
lowerback 5.36387 -4.29554 2.48906
upperback 0.463157 -5.50251 3.13088
thorax -2.44511 -2.75951 2.24073
lowerneck -16.8487 -10.2742 -11.1701
upperneck 35.682 -18.318 13.6109
head 19.0264 -7.45108 4.17461
rclavicle 3.77691e-015 -1.74931e-014
rhumerus -37.7945 30.19 -78.2527
rradius 96.8318
rwrist 15.3763
rhand -16.4737 5.72136
rfingers 7.12502
rthumb 9.74312 -24.0333
lclavicle 3.77691e-015 -1.74931e-014
lhumerus 6.72778 -46.2377 87.4787
lradius 57.4647
lwrist 348.864
lhand -28.9955 61.2438
lfingers 7.12502
lthumb -182.347 2608.79
rfemur -16.6523 12.06 19.1315
rtibia 15.992
rfoot -10.2495 -2.3737
rtoes -23.7247
lfemur -13.7353 -6.18961 -15.3341
ltibia 17.9653
lfoot -15.1511 19.1241
ltoes -23.5862
2800
root 5.74311 17.7101 -13.6029 12.4712 -30.4851 -0.489888
lowerback 5.34085 -4.30719 2.38377
upperback 0.43634 -5.52374 3.18069
thorax -2.4447 -2.76925 2.35062
lowerneck -16.911 -10.2285 -11.3016
upperneck 35.795 -18.1492 13.4604
head 19.0642 -7.41409 4.17087
rclavicle 2.28602e-014 5.1684e-015
rhumerus -37.6733 30.4302 -78.1598
rradius 96.815
rwrist 15.3684
rhand -16.2121 5.76414
rfingers 7.12502
rthumb 9.99557 -23.9785
lclavicle 2.28602e-014 5.1684e-015
lhumerus 6.54688 -45.8528 87.702
lradius 57.4717
lwrist 349.009
lhand -28.9216 61.1277
lfingers 7.12502
lthumb -182.276 2608.9
rfemur -16.7346 12.0606 19.0405
rtibia 16.0933
rfoot -10.3002 -2.25439
rtoes -23.8395
lfemur -13.6316 -6.33961 -15.4193
ltibia 17.8363
lfoot -15.1324 19.4108
ltoes -23.635
2801
root 5.74436 17.7106 -13.6021 12.4347 -30.6914 -0.399086
lowerback 5.28538 -4.30544 2.24841
upperback 0.440838 -5.5323 3.1875
thorax -2.39544 -2.77247 2.42736
lowerneck -17.0259 -10.1709 -11.3095
upperneck 35.8544 -17.9764 13.294
head 19.0627 -7.35832 4.13384
rclavicle -1.02175e-013 3.57812e-014
rhumerus -37.5112 30.6124 -78.1603
rradius 96.7647
rwrist 15.3942
rhand -16.0877 5.7065
rfingers 7.12502
rthumb 10.1155 -24.0303
lclavicle -1.02175e-013 3.57812e-014
lhumerus 6.46065 -45.5463 87.8012
lradius 57.5063
lwrist 349.126
lhand -28.9229 61.3198
lfingers 7.12502
lthumb -182.277 2608.71
rfemur -16.8275 12.1407 18.9204
rtibia 16.1948
rfoot -10.3482 -2.13707
rtoes -23.7507
lfemur -13.5367 -6.3067 -15.5413
ltibia 17.7287
lfoot -15.0913 19.5396
ltoes -23.6227
2802
root 5.74829 17.7115 -13.6017 12.4142 -30.8775 -0.3033
lowerback 5.19537 -4.29062 2.23974
upperback 0.4664 -5.51948 3.09942
thorax -2.32701 -2.76609 2.33159
lowerneck -16.9504 -10.1787 -11.3091
upperneck 35.6638 -17.9745 13.3581
head 18.9384 -7.35721 4.15745
rclavicle -1.03368e-014 -1.23246e-014
rhumerus -37.3538 30.6955 -78.254
rradius 96.7004
rwrist 15.3925
rhand -16.071 5.62624
rfingers 7.12502
rthumb 10.1317 -24.1098
lclavicle -1.03368e-014 -1.23246e-014
lhumerus 6.46405 -45.4338 87.6982
lradius 57.5753
lwrist 349.3
lhand -29.0043 61.3836
lfingers 7.12502
lthumb -182.356 2608.65
rfemur -16.9307 12.2068 18.7873
rtibia 16.261
rfoot -10.3659 -2.02994
rtoes -23.4981
lfemur -13.5154 -6.25787 -15.6663
ltibia 17.7034
lfoot -15.1155 19.6133
ltoes -23.4337
2803
root 5.75305 17.7084 -13.6013 12.3992 -31.0228 -0.226302
lowerback 5.14183 -4.30524 2.23032
upperback 0.453133 -5.54203 3.05817
thorax -2.31354 -2.77726 2.29216
lowerneck -16.6818 -10.2106 -11.4726
upperneck 35.3583 -18.0073 13.5571
head 18.7506 -7.39004 4.26679
rclavicle 1.11319e-014 1.19271e-014
rhumerus -37.2232 30.8587 -78.2594
rradius 96.6998
rwrist 15.6267
rhand -15.6974 5.50599
rfingers 7.12502
rthumb 10.4921 -24.2122
lclavicle 1.11319e-014 1.19271e-014
lhumerus 6.3568 -45.2127 87.6953
lradius 57.6488
lwrist 349.429
lhand -28.9122 61.0382
lfingers 7.12502
lthumb -182.267 2608.99
rfemur -17.0283 12.178 18.6917
rtibia 16.2945
rfoot -10.416 -1.9713
rtoes -23.7958
lfemur -13.5364 -6.26109 -15.7653
ltibia 17.7537
lfoot -15.2568 19.6901
ltoes -22.9491
2804
root 5.7579 17.6995 -13.6006 12.328 -31.1357 -0.178206
lowerback 5.1594 -4.28725 2.29587
upperback 0.455277 -5.51483 2.97478
thorax -2.33612 -2.76412 2.17024
lowerneck -16.4773 -10.2864 -11.6009
upperneck 35.148 -18.1681 13.8046
head 18.6708 -7.45893 4.36341
rclavicle 3.95581e-014 6.75868e-015
rhumerus -37.1238 30.7518 -78.2801
rradius 96.7388
rwrist 16.3179
rhand -14.9318 5.24334
rfingers 7.12502
rthumb 11.2305 -24.4361
lclavicle 3.95581e-014 6.75868e-015
lhumerus 6.27879 -45.1165 87.7433
lradius 57.6411
lwrist 349.557
lhand -28.8294 60.9071
lfingers 7.12502
lthumb -182.187 2609.12
rfemur -17.0414 12.0444 18.6682
rtibia 16.3006
rfoot -10.5385 -1.90872
rtoes -25.1322
lfemur -13.5128 -6.23308 -15.8473
ltibia 17.8457
lfoot -15.3767 19.7425
ltoes -22.7791
2805
root 5.76275 17.6937 -13.5998 12.2335 -31.2292 -0.155993
lowerback 5.19578 -4.26192 2.43766
upperback 0.494499 -5.47468 2.84283
thorax -2.34289 -2.74514 1.95544
lowerneck -17.5648 -9.95237 -10.833
upperneck 35.8813 -17.6572 13.1004
head 19.0547 -7.16025 4.01955
rclavicle -4.90998e-014 -1.59028e-015
rhumerus -37.0337 30.5781 -78.363
rradius 96.8284
rwrist 16.7309
rhand -14.0931 5.05365
rfingers 7.12502
rthumb 12.0393 -24.58
lclavicle -4.90998e-014 -1.59028e-015
lhumerus 6.27007 -45.181 87.6535
lradius 57.6523
lwrist 349.812
lhand -28.9422 61.1999
lfingers 7.12502
lthumb -182.296 2608.83
rfemur -16.9686 11.9024 18.6753
rtibia 16.2689
rfoot -10.6325 -1.75173
rtoes -26.043
lfemur -13.4748 -6.1618 -15.9121
ltibia 17.9769
lfoot -15.4255 19.7694
ltoes -23.0659
